<svg id="Group_177" data-name="Group 177" xmlns="http://www.w3.org/2000/svg" width="40.5" height="40.5" viewBox="0 0 40.5 40.5">
  <path id="Path_1476" data-name="Path 1476" d="M0,0H40.5V40.5H0Z" fill="none"/>
  <path id="Path_1477" data-name="Path 1477" d="M4.82,32.375V22.25a13.5,13.5,0,1,1,27,0V32.375h1.687V35.75H3.132V32.375Zm3.375,0h20.25V22.25a10.125,10.125,0,1,0-20.25,0ZM16.632,2h3.375V7.063H16.632ZM31.445,6.739l2.386,2.386L30.253,12.7l-2.388-2.386,3.579-3.579ZM2.808,9.125,5.194,6.739l3.579,3.577L6.389,12.705ZM9.882,22.25a8.438,8.438,0,0,1,8.438-8.438v3.375a5.063,5.063,0,0,0-5.063,5.063Z" transform="translate(1.931 1.375)" fill="#fff"/>
</svg>
