<svg id="Group_182" data-name="Group 182" xmlns="http://www.w3.org/2000/svg" width="41.525" height="41.525" viewBox="0 0 41.525 41.525">
  <path id="Path_1488" data-name="Path 1488" d="M0,0H41.525V41.525H0Z" fill="none"/>
  <path id="Path_1489" data-name="Path 1489" d="M19.3,17.572a8.651,8.651,0,0,1,8.651,8.651V36.6h-3.46V26.223a5.191,5.191,0,0,0-4.886-5.182l-.3-.009a5.191,5.191,0,0,0-5.182,4.886l-.009.3V36.6h-3.46V26.223A8.651,8.651,0,0,1,19.3,17.572ZM8.056,22.763a6.128,6.128,0,0,1,1.4.163,10.29,10.29,0,0,0-.521,2.725l-.016.573v.149a2.581,2.581,0,0,0-.616-.138l-.249-.01a2.6,2.6,0,0,0-2.583,2.346l-.012.249V36.6H2V28.818a6.056,6.056,0,0,1,6.056-6.056Zm22.493,0A6.056,6.056,0,0,1,36.6,28.818V36.6h-3.46V28.818A2.6,2.6,0,0,0,30.8,26.235l-.249-.012a2.61,2.61,0,0,0-.865.147v-.147a10.319,10.319,0,0,0-.535-3.294A5.917,5.917,0,0,1,30.549,22.763ZM8.056,12.381A4.326,4.326,0,1,1,3.73,16.707a4.326,4.326,0,0,1,4.326-4.326Zm22.493,0a4.326,4.326,0,1,1-4.326,4.326,4.326,4.326,0,0,1,4.326-4.326ZM8.056,15.842a.865.865,0,1,0,.865.865A.865.865,0,0,0,8.056,15.842Zm22.493,0a.865.865,0,1,0,.865.865A.865.865,0,0,0,30.549,15.842ZM19.3,2a6.921,6.921,0,1,1-6.921,6.921A6.921,6.921,0,0,1,19.3,2Zm0,3.46a3.46,3.46,0,1,0,3.46,3.46A3.46,3.46,0,0,0,19.3,5.46Z" transform="translate(1.46 1.46)" fill="#464646"/>
</svg>
