<svg id="Group_179" data-name="Group 179" xmlns="http://www.w3.org/2000/svg" width="40.5" height="40.5" viewBox="0 0 40.5 40.5">
  <path id="Path_1482" data-name="Path 1482" d="M0,0H40.5V40.5H0Z" fill="none"/>
  <path id="Path_1483" data-name="Path 1483" d="M18.875,35.75A16.875,16.875,0,1,1,35.75,18.875,16.875,16.875,0,0,1,18.875,35.75Zm0-3.375a13.5,13.5,0,1,0-13.5-13.5A13.5,13.5,0,0,0,18.875,32.375Zm0-15.886,4.772-4.774L26.035,14.1l-4.774,4.772,4.774,4.772-2.388,2.388-4.772-4.774L14.1,26.035l-2.388-2.388,4.774-4.772L11.715,14.1,14.1,11.715Z" transform="translate(1.375 1.375)" fill="#fff"/>
</svg>
