<svg id="Group_173" data-name="Group 173" xmlns="http://www.w3.org/2000/svg" width="46" height="46" viewBox="0 0 46 46">
  <path id="Path_1468" data-name="Path 1468" d="M0,0H46V46H0Z" fill="none"/>
  <path id="Path_1469" data-name="Path 1469" d="M5.833,10.857V35.436l9.708-4.159,11.5,5.75L36.5,32.969V8.392L39,7.322a.958.958,0,0,1,1.336.882V35.5l-13.417,5.75-11.5-5.75L3.336,40.676A.958.958,0,0,1,2,39.795V12.5ZM29.3,20.632l-8.132,8.13-8.132-8.13a11.5,11.5,0,1,1,16.265,0Zm-8.132,2.71,5.42-5.422a7.667,7.667,0,1,0-10.841,0Z" transform="translate(1.833 0.917)" fill="#fff"/>
</svg>
