<svg id="Group_174" data-name="Group 174" xmlns="http://www.w3.org/2000/svg" width="40.5" height="40.5" viewBox="0 0 40.5 40.5">
  <path id="Path_1470" data-name="Path 1470" d="M0,0H40.5V40.5H0Z" fill="none"/>
  <path id="Path_1471" data-name="Path 1471" d="M30.688,35.75H7.062A5.063,5.063,0,0,1,2,30.688v-27A1.688,1.688,0,0,1,3.688,2H27.313A1.688,1.688,0,0,1,29,3.688v20.25h6.75v6.75A5.063,5.063,0,0,1,30.688,35.75ZM29,27.313v3.375a1.687,1.687,0,0,0,3.375,0V27.313Zm-3.375,5.062v-27H5.375V30.688a1.687,1.687,0,0,0,1.687,1.687ZM8.75,10.438h13.5v3.375H8.75Zm0,6.75h13.5v3.375H8.75Zm0,6.75h8.437v3.375H8.75Z" transform="translate(1.375 1.375)" fill="#4c4b4b"/>
</svg>
