<svg id="Group_175" data-name="Group 175" xmlns="http://www.w3.org/2000/svg" width="47.308" height="47.308" viewBox="0 0 47.308 47.308">
  <path id="Path_1472" data-name="Path 1472" d="M0,0H47.308V47.308H0Z" fill="none"/>
  <path id="Path_1473" data-name="Path 1473" d="M22.712,36.51H34.539V28.625H26.654V24.683h7.885V8.913H30.6v9.856l-7.885-3.154Zm-3.942,0V15.615l-7.885,3.154V8.913H6.942v27.6ZM10.885,4.971V3H30.6V4.971H36.51a1.971,1.971,0,0,1,1.971,1.971V38.481a1.971,1.971,0,0,1-1.971,1.971H4.971A1.971,1.971,0,0,1,3,38.481V6.942A1.971,1.971,0,0,1,4.971,4.971Zm9.856,7.885,6.9-5.913h-13.8Z" transform="translate(2.913 2.913)" fill="#4c4b4b"/>
</svg>
