<svg id="Group_176" data-name="Group 176" xmlns="http://www.w3.org/2000/svg" width="44" height="44" viewBox="0 0 44 44">
  <path id="Path_1474" data-name="Path 1474" d="M0,0H44V44H0Z" fill="none"/>
  <path id="Path_1475" data-name="Path 1475" d="M33.167,33.333H7.5v1.833A1.833,1.833,0,0,1,5.667,37H3.833A1.833,1.833,0,0,1,2,35.167V16.833L6.547,6.222A3.667,3.667,0,0,1,9.92,4H30.747a3.667,3.667,0,0,1,3.37,2.222l4.55,10.612V35.167A1.833,1.833,0,0,1,36.833,37H35a1.833,1.833,0,0,1-1.833-1.833ZM35,20.5H5.667v9.167H35ZM5.989,16.833H34.677L30.749,7.667H9.92L5.991,16.833Zm4.261,11A2.75,2.75,0,1,1,13,25.083,2.75,2.75,0,0,1,10.25,27.833Zm20.167,0a2.75,2.75,0,1,1,2.75-2.75A2.75,2.75,0,0,1,30.417,27.833Z" transform="translate(1.667 3.333)" fill="#4c4b4b"/>
</svg>
