<svg xmlns="http://www.w3.org/2000/svg" width="505.227" height="143" viewBox="0 0 505.227 143">
  <g id="Group_36" data-name="Group 36" transform="translate(-495.387 -383)">
    <g id="Group_35" data-name="Group 35" transform="translate(64.387 -3)">
      <g id="Group_33" data-name="Group 33" transform="translate(-23.773 31.858)">
        <g id="Group_2" data-name="Group 2" transform="translate(625.546 431.059)">
          <path id="Path_23" data-name="Path 23" d="M714.491,1354.664a6.933,6.933,0,0,1-3.006-2.281,6.229,6.229,0,0,1-1.187-3.638h5.611a2.815,2.815,0,0,0,.833,1.881,2.634,2.634,0,0,0,1.85.647,2.783,2.783,0,0,0,1.85-.57,1.893,1.893,0,0,0,.678-1.526,1.771,1.771,0,0,0-.539-1.325,4.363,4.363,0,0,0-1.326-.864,21.5,21.5,0,0,0-2.235-.771,24.319,24.319,0,0,1-3.422-1.295,6.312,6.312,0,0,1-2.281-1.912,5.324,5.324,0,0,1-.956-3.3,5.673,5.673,0,0,1,2.189-4.732,9,9,0,0,1,5.7-1.711,9.1,9.1,0,0,1,5.765,1.711,6.127,6.127,0,0,1,2.343,4.763h-5.7a2.326,2.326,0,0,0-.755-1.711,2.7,2.7,0,0,0-1.834-.6,2.222,2.222,0,0,0-1.541.524,1.921,1.921,0,0,0-.586,1.51,1.814,1.814,0,0,0,.986,1.634,16.156,16.156,0,0,0,3.083,1.264,28.668,28.668,0,0,1,3.406,1.357,6.489,6.489,0,0,1,2.266,1.881,5.036,5.036,0,0,1,.956,3.175,6.231,6.231,0,0,1-.94,3.36,6.587,6.587,0,0,1-2.729,2.4,9.339,9.339,0,0,1-4.224.894A11.129,11.129,0,0,1,714.491,1354.664Z" transform="translate(-710.298 -1333.268)" fill="#ff4343"/>
          <path id="Path_24" data-name="Path 24" d="M792.493,1338.65v4.5h7.06v3.977h-7.06v4.84h7.984v4.162H787.221v-21.642h13.256v4.162h-7.984Z" transform="translate(-767.645 -1334.177)" fill="#ff4343"/>
          <path id="Path_25" data-name="Path 25" d="M850.631,1338.831a9.915,9.915,0,0,1,3.869-3.915,11.235,11.235,0,0,1,5.626-1.4,10.766,10.766,0,0,1,6.6,2.035,9.772,9.772,0,0,1,3.669,5.549h-5.8a4.842,4.842,0,0,0-1.85-2.019,5.166,5.166,0,0,0-2.682-.694,5.054,5.054,0,0,0-3.946,1.68,7.437,7.437,0,0,0,0,8.987,5.434,5.434,0,0,0,6.628.987A4.949,4.949,0,0,0,864.6,1348h5.8a9.7,9.7,0,0,1-3.669,5.533,10.819,10.819,0,0,1-6.6,2.019,11.233,11.233,0,0,1-5.626-1.4,9.942,9.942,0,0,1-3.869-3.9,12.45,12.45,0,0,1,0-11.422Z" transform="translate(-813.884 -1333.45)" fill="#ff4343"/>
          <path id="Path_26" data-name="Path 26" d="M949.974,1334.48V1347.4a4.282,4.282,0,0,0,.956,2.99,3.606,3.606,0,0,0,2.806,1.048,3.708,3.708,0,0,0,2.836-1.048,4.2,4.2,0,0,0,.986-2.99V1334.48h5.272V1347.4a9.184,9.184,0,0,1-1.233,4.9,7.9,7.9,0,0,1-3.314,3.021,10.423,10.423,0,0,1-4.64,1.017,10.162,10.162,0,0,1-4.578-1,7.461,7.461,0,0,1-3.19-3.021,9.643,9.643,0,0,1-1.172-4.917V1334.48Z" transform="translate(-885.049 -1334.172)" fill="#ff4343"/>
          <path id="Path_27" data-name="Path 27" d="M1041.5,1356.122l-4.5-8.169h-1.264v8.169h-5.271V1334.48h8.848a9.746,9.746,0,0,1,4.363.894,6.163,6.163,0,0,1,2.7,2.451,6.84,6.84,0,0,1,.894,3.468,6.444,6.444,0,0,1-1.218,3.854,6.559,6.559,0,0,1-3.592,2.4l4.994,8.57h-5.95Zm-5.764-11.9H1039a2.991,2.991,0,0,0,2.173-.709,3.111,3.111,0,0,0,0-3.992,2.952,2.952,0,0,0-2.173-.725h-3.268Z" transform="translate(-948.983 -1334.171)" fill="#ff4343"/>
          <path id="Path_28" data-name="Path 28" d="M1114.717,1334.48v21.642h-5.272V1334.48Z" transform="translate(-1007.866 -1334.171)" fill="#ff4343"/>
          <path id="Path_29" data-name="Path 29" d="M1157.321,1334.48v4.162h-5.734v17.48h-5.272v-17.48h-5.734v-4.162Z" transform="translate(-1031.078 -1334.171)" fill="#ff4343"/>
          <path id="Path_30" data-name="Path 30" d="M1230.365,1334.48l-7.491,14.49v7.152H1217.6v-7.152l-7.492-14.49h5.981l4.193,9.033,4.162-9.033Z" transform="translate(-1082.913 -1334.171)" fill="#ff4343"/>
        </g>
        <g id="Group_3" data-name="Group 3" transform="translate(777.77 431.059)">
          <path id="Path_31" data-name="Path 31" d="M807.95,1452.493a10.543,10.543,0,0,1,4.022-3.944,11.823,11.823,0,0,1,11.722.28,9.676,9.676,0,0,1,3.913,4.817h-4.271A5.726,5.726,0,0,0,821,1451.2a7.04,7.04,0,0,0-3.461-.826,7.562,7.562,0,0,0-3.835.967,6.77,6.77,0,0,0-2.635,2.743,8.584,8.584,0,0,0-.951,4.115,8.675,8.675,0,0,0,.951,4.131,6.737,6.737,0,0,0,2.635,2.758,7.564,7.564,0,0,0,3.835.967,7.032,7.032,0,0,0,3.461-.827,5.719,5.719,0,0,0,2.338-2.447h4.271a9.591,9.591,0,0,1-3.913,4.8,11.379,11.379,0,0,1-6.157,1.684,11.183,11.183,0,0,1-5.581-1.42,10.571,10.571,0,0,1-4.007-3.943,11.726,11.726,0,0,1,0-11.41Z" transform="translate(-806.468 -1447.13)" fill="#fff"/>
          <path id="Path_32" data-name="Path 32" d="M876.4,1467.879a10.508,10.508,0,0,1-4.022-3.961,11.757,11.757,0,0,1,0-11.426,10.544,10.544,0,0,1,4.022-3.944,11.691,11.691,0,0,1,11.161,0,10.44,10.44,0,0,1,4.006,3.944,11.871,11.871,0,0,1,0,11.426,10.406,10.406,0,0,1-4.006,3.961,11.689,11.689,0,0,1-11.161,0Zm9.4-2.774a6.849,6.849,0,0,0,2.635-2.774,8.681,8.681,0,0,0,.952-4.131,8.59,8.59,0,0,0-.952-4.115,6.773,6.773,0,0,0-2.635-2.743,8.087,8.087,0,0,0-7.67,0,6.771,6.771,0,0,0-2.635,2.743,8.585,8.585,0,0,0-.951,4.115,8.676,8.676,0,0,0,.951,4.131,6.852,6.852,0,0,0,2.635,2.774,7.983,7.983,0,0,0,7.67,0Z" transform="translate(-840.566 -1447.131)" fill="#fff"/>
          <path id="Path_33" data-name="Path 33" d="M956.383,1469.36h-3.554l-10.694-16.181v16.181h-3.554v-21.7h3.554l10.694,16.15v-16.15h3.554Z" transform="translate(-876.382 -1447.41)" fill="#fff"/>
          <path id="Path_34" data-name="Path 34" d="M1012.3,1447.73v2.775h-5.768V1469.4h-3.555v-18.893h-5.8v-2.775Z" transform="translate(-907.394 -1447.448)" fill="#fff"/>
          <path id="Path_35" data-name="Path 35" d="M1061.419,1469.395l-4.989-8.667h-2.712v8.667h-3.554v-21.668h7.483a9.307,9.307,0,0,1,4.225.873,6.052,6.052,0,0,1,2.587,2.338,6.364,6.364,0,0,1,.858,3.273,6.487,6.487,0,0,1-1.232,3.851,6.251,6.251,0,0,1-3.788,2.354l5.363,8.979Zm-7.7-11.473h3.928a4.126,4.126,0,0,0,3.009-1,4.183,4.183,0,0,0,.015-5.44,4.15,4.15,0,0,0-3.024-.982h-3.928Z" transform="translate(-935.432 -1447.446)" fill="#fff"/>
          <path id="Path_36" data-name="Path 36" d="M1108.245,1467.879a10.509,10.509,0,0,1-4.023-3.961,11.759,11.759,0,0,1,0-11.426,10.545,10.545,0,0,1,4.023-3.944,11.689,11.689,0,0,1,11.16,0,10.441,10.441,0,0,1,4.006,3.944,11.874,11.874,0,0,1,0,11.426,10.4,10.4,0,0,1-4.006,3.961,11.687,11.687,0,0,1-11.16,0Zm9.4-2.774a6.852,6.852,0,0,0,2.635-2.774,8.684,8.684,0,0,0,.951-4.131,8.593,8.593,0,0,0-.951-4.115,6.776,6.776,0,0,0-2.635-2.743,8.087,8.087,0,0,0-7.67,0,6.766,6.766,0,0,0-2.635,2.743,8.581,8.581,0,0,0-.951,4.115,8.672,8.672,0,0,0,.951,4.131,6.847,6.847,0,0,0,2.635,2.774,7.982,7.982,0,0,0,7.67,0Z" transform="translate(-963.256 -1447.131)" fill="#fff"/>
          <path id="Path_37" data-name="Path 37" d="M1173.975,1466.683h7.327v2.713h-10.881v-21.668h3.554Z" transform="translate(-999.072 -1447.447)" fill="#fff"/>
        </g>
      </g>
      <text id="Company_Logo_Name" data-name="Company Logo &amp; Name" transform="translate(601.773 447)" fill="#848484" font-size="16" font-family="Poppins-Regular, Poppins"><tspan x="0" y="0">Company Logo &amp; Name</tspan></text>
    </g>
    <g id="Group_34" data-name="Group 34" transform="translate(64.387)">
      <g id="Group_1" data-name="Group 1" transform="translate(454.415 394.708)">
        <path id="Path_1" data-name="Path 1" d="M743.694,707.773a4.54,4.54,0,0,1-1.5-.227,52.612,52.612,0,0,1-17.373-10.638A61.986,61.986,0,0,1,712.4,680.553a105.366,105.366,0,0,1-10.3-29.513,197.432,197.432,0,0,1-3.344-29.309l3.922-1.181c4.661-1.4,9.256-2.786,13.85-4.172,2.265-.683,4.564-1.383,6.788-2.06,6.029-1.836,12.264-3.734,18.415-5.48a7.434,7.434,0,0,1,1.974-.264,5.929,5.929,0,0,1,1.626.208c10.3,3.006,20.752,6.155,30.86,9.2,3.876,1.168,7.884,2.375,11.828,3.558.211.063.415.119.6.167a226.681,226.681,0,0,1-3.66,30.166,106.314,106.314,0,0,1-9.971,28.786,60.675,60.675,0,0,1-12.233,16.265,51.722,51.722,0,0,1-17.226,10.556A5.479,5.479,0,0,1,743.694,707.773Z" transform="translate(-695.565 -590.658)" fill="#141414"/>
        <path id="Path_2" data-name="Path 2" d="M796.226,611.1a14.429,14.429,0,0,1-2.262-1.189c-1.766-1.25-7.73-3.681-7.73-3.681s4.344-7.582,4.417-8.393-1.1-1.472-1.1-1.472a5.632,5.632,0,0,0-3.535-1.547,6.4,6.4,0,0,0-3.606,1.326s-4.343-1.62-5.226-2.134-1.547-.368-3.019-.736a8.176,8.176,0,0,1-3.24-1.767,7.4,7.4,0,0,0-3.165-.957s-1.252-3.24-.221-5.228,2.724-2.356,3.019-6.11a3.689,3.689,0,0,0,2.723-3.535l-5.337-5.659h0l-.55-.583-3.654-3.875-1.428-1.514-6.386-1.729h0l-.985-.265h0l-10.594-2.866-4.048,1.834-2.423,1.1-.542.246-1.812.82h0l-2.651,1.2-1.033,2.013h0l-.17.331v0l-.043.085h0l-.3.577v4.009a18.1,18.1,0,0,1-1.305,2.358v0a.81.81,0,0,0-.092.3s-1.841.075-2.356,1.031-.516,4.858,1.252,7.362c1.718,2.435,3.507,1.6,3.6,1.548a3.076,3.076,0,0,0-1.1,1.617,2.2,2.2,0,0,0,.811,1.547s-.027.467-.064,1.122c-.051.861-.116,2.049-.156,2.927a5.779,5.779,0,0,0,.17,2.034c.1.385.183.689.183.689l.28.823c-.759-.379-1.7-1.216-4.168-.076l-.481-1.259v0l-.255-.662-.5.161-3.62,1.162s-2.283-5.667-2.577-6.036-1.768-.59-1.4,1.252a29.621,29.621,0,0,0,2.209,5.374s-1.252.221-1.618.736.128,1.161.571,1.9c0,0-2.222,2.088-3.18,3.267s-1.9,2.07-1.971,3.174.539,6.912,1.5,9.047a5.107,5.107,0,0,1-1.943,2.647,17.118,17.118,0,0,1-2.113,1.244c-.207.1-.434.191-.672.288.912,3.486,1.981,6.933,3.232,10.336q.492,1.332,1.019,2.654a98.009,98.009,0,0,0,4.663,10.021c.016.031.034.063.052.094h0a68.808,68.808,0,0,0,7.667,11.454c.267.323.538.641.812.958q.436.5.884,1,.277.3.556.6c1.371,0,3.208-1.012,4.228-.088l0,0a.167.167,0,0,1,.037.036l.051.049c2.633,2.84,6.062,7.252,9.965,7.639l.216.016c.113.007.226.01.34.01l2.1-7.679c4.465-.007,11.867,7.106,16.585,7.535.151.015.3.021.443.021a7.882,7.882,0,0,0,5.453-2.311,48.938,48.938,0,0,0,4.59-5.3l.006-.006a1.269,1.269,0,0,1,.2-.194c.981-.778,2.782.191,4.106.186q.724-.785,1.42-1.6.921-1.073,1.793-2.2v0a68.441,68.441,0,0,0,6.426-9.98s0,0,0,0l.085-.158a100.7,100.7,0,0,0,6.793-16.236c1.225-3.806,2.24-7.661,3.089-11.554C798.109,611.9,797.1,611.495,796.226,611.1Zm-62.042-13.336a1.834,1.834,0,0,1-.829-.644,2.921,2.921,0,0,1-.534.864,5.018,5.018,0,0,1-1.343.925c-.08.042-.162.082-.243.122.127-.043.261-.082.4-.116a5.764,5.764,0,0,1,1.186-.2,3.433,3.433,0,0,1,2.539,1.326A3.925,3.925,0,0,0,734.184,597.768Z" transform="translate(-707.099 -548.635)" fill="#ff4343"/>
        <path id="Path_3" data-name="Path 3" d="M825.135,515.41l-19.1-8.834a33.834,33.834,0,0,1-9.056,3.092,17.259,17.259,0,0,1-3.112.183c-3.316-.1-6.651-1.124-10.693-2.723-5.289-2.094-7.389-2.978-9.921-2.435.381-.092,6.547-1.589,11.467-3.088l.04-.069c.085-.148.311-.532.645-1.077,1.626-2.636,5.834-9.047,9.363-10.781,6.295-3.091,17.338-.221,22.859,3.313,3.744,2.4,6.067,9.059,7.036,14.993h0c.188,1.152.325,2.277.411,3.338h0A27.3,27.3,0,0,1,825.135,515.41Z" transform="translate(-758.957 -488.364)" fill="#ff4343"/>
        <path id="Path_4" data-name="Path 4" d="M880.12,628.985c-1.178-2.454-3.828-.54-4.466.491a7.411,7.411,0,0,1-2.847-3.779s-2.847-1.571-2.9-4.025c0,0-3.583-1.669-4.319-2.209a18.059,18.059,0,0,1-7.9,3.092c-5.006.785-11.338-.344-13.693-1.522a12,12,0,0,1-1.374,3.337s3.632,1.62,3.632,3.877-1.5,5-2.356,6.282c-.687,1.031-1.835,2.512-.638,3.485a5.825,5.825,0,0,0,.568.393h0a2.062,2.062,0,0,0,1.8.116h0a1.994,1.994,0,0,1,1.1-.517c1.031,0,1.086.552,1.969.589s1.8.573,1.423-1.867c0,0,1.227,1.229.54,2.162a2.3,2.3,0,0,1-.809.734.428.428,0,0,1-.2.078h0a1.051,1.051,0,0,1-.33.04h-.008a1.149,1.149,0,0,1-.5-.147h0c-.4-.036-.837.426-1.867.484l-.594,1.689.7-.393s-1.051,1.8-1.552,2.558l.68.337s.368-.074,1.742-.391,1.8-.569,2.323,0h0c.744.84,1.309,1.594,1.309,1.594-.982,0-4.025.049-4.025.049a3.093,3.093,0,0,1-1.914.049s-1.031,3.043,1.522,3.092a6.533,6.533,0,0,0,4.466-2.16,7.161,7.161,0,0,1-3.485,3.976s-.1,3.926,4.466,2.994,6.871-6.577,6.871-6.577l-.883,3.36s5.988-1.434,9.178-5.446c3.239-4.074,3.681-4.884,4.565-8.074,0,0-.344,1.767.589,2.258s3.828-.933,4.908-2.847S881.3,631.439,880.12,628.985Z" transform="translate(-817.991 -599.926)" fill="#fff"/>
        <path id="Path_5" data-name="Path 5" d="M877.006,661.181a2.932,2.932,0,0,0-2.6,2.969,7.139,7.139,0,0,0,2.994,6.11c2.871,2.331,7.19.368,8.221-.663s.515-5.693-.614-6.92S879.779,660.886,877.006,661.181Z" transform="translate(-845.037 -635.362)" fill="#ff4343"/>
        <path id="Path_6" data-name="Path 6" d="M944.843,669.4s11.074-.294,16.485-1.767l.258.515a53.562,53.562,0,0,1-16.742,1.877Z" transform="translate(-904.978 -640.915)" fill="#ff4343"/>
        <path id="Path_7" data-name="Path 7" d="M862.878,670.726a2.792,2.792,0,0,1,2.282,0l-.1.319s-1.546-.332-2.184.227Z" transform="translate(-835.228 -643.336)" fill="#ff4343"/>
        <path id="Path_8" data-name="Path 8" d="M1012.858,749.389s-2.454,3.141-4.516,1.276c0,0,1.407,6.325-6.045,13.892l1.656,4.665s5.741-4.79,10.075-8.22a2.793,2.793,0,0,0,.98-2.857Z" transform="translate(-953.871 -710.49)" fill="#fff"/>
        <path id="Path_9" data-name="Path 9" d="M762.475,812.679a3.3,3.3,0,0,0,.216-.368,3.565,3.565,0,0,0,.447-1.571,1.649,1.649,0,0,0-.638-1.35c-.087-.067-.167-.131-.246-.189v0c-1.182-.894-1.429-.732-1.447-.717.013-.067.505-2.322-.1-3.361-.548-.94-1.523-1.8-3.849-1.891-.052,0-.1,0-.156-.006-.237-.006-.49,0-.756.007a5.423,5.423,0,0,0,1.766-1.423,1.8,1.8,0,0,0-1.644-2.529,22.516,22.516,0,0,0-6.846,1.6,8.18,8.18,0,0,0-3.852,3.215c-.738,1.055-2.75,3.559-3.264,4.222s.392,4.392.587,6.012,1.425,4.442,1.523,6.919a20.78,20.78,0,0,1-.762,5.769c-.122.294-.514,3.632,3.828,4.858s5.129.344,5.129.344a6.457,6.457,0,0,1,1.079-3.486c.864-.966,2-1.639,2.422-2.626h0a1.968,1.968,0,0,0,.155-.613,34.374,34.374,0,0,0,.213-3.667v0a3.815,3.815,0,0,0-.31-1.727,8.513,8.513,0,0,0,.981-2.209,7.568,7.568,0,0,1,2.234-1.118,4.864,4.864,0,0,1,2.5,0c.1.086.075.529.688.529s1.3-.835,1.3-2.21S762.967,812.728,762.475,812.679ZM746.928,807c.185-.148,1.307-.882,1.767-1.213s2.376-1.565,2.8-1.878a2.507,2.507,0,0,1,1.32-.517,9.523,9.523,0,0,1,1.623.165,3.9,3.9,0,0,1-1.623.48,2.526,2.526,0,0,0-1.763.662C750.316,805.195,746.745,807.146,746.928,807Zm3.387,3.589c-1.012.462-1.215.185-.939-.109a41.19,41.19,0,0,1,4.344-2.228,3.793,3.793,0,0,1,1.413-.183C754.812,808.067,751.323,810.129,750.316,810.587Zm5.319,2.946c-1.031.368-3.165.772-2.7.533a22.691,22.691,0,0,1,4.159-1.675,1.546,1.546,0,0,1,.957.349S756.666,813.165,755.635,813.533Z" transform="translate(-732.322 -752.946)" fill="#fff"/>
        <path id="Path_10" data-name="Path 10" d="M862.036,571.93l5.727,1.82c-.419-.112-7.025-1.869-12.868-2.831-1.577-.261-3.1-.462-4.425-.559.085-.148.311-.532.645-1.078l.152-.043s2.739-.021,6.593.337c5.942.55,14.534,2,19.822,5.819A39.593,39.593,0,0,0,862.036,571.93Z" transform="translate(-824.669 -557.186)" fill="#fff"/>
        <path id="Path_11" data-name="Path 11" d="M899.106,704.166a8.506,8.506,0,0,0,6.816,2.135,3.388,3.388,0,0,1-1.81-1.049s.957.571,3.534,0l-2.871-4.031Z" transform="translate(-866.057 -669.5)" fill="#ff4343"/>
        <path id="Path_12" data-name="Path 12" d="M791.026,789.2l3.278-1.16.607,1.675-3.313.847Z" transform="translate(-774.083 -743.385)" fill="#fff"/>
        <path id="Path_13" data-name="Path 13" d="M767.022,754.264l2.522,5.687-.552.294s-2.043-5.043-2.153-5.282S766.544,753.657,767.022,754.264Z" transform="translate(-753.391 -714.481)" fill="#fff"/>
        <path id="Path_14" data-name="Path 14" d="M822.562,661.1s-2.479.039-2.5,2.193a10.751,10.751,0,0,0,.638,3.786S819.691,662.475,822.562,661.1Z" transform="translate(-798.789 -635.361)" fill="#fff"/>
        <path id="Path_15" data-name="Path 15" d="M1003.292,801.771s1.505,3.09-.5,5.151-15.258,12.306-15.258,12.306l4.38,6.615s11.6-14.078,12.921-18.524S1003.292,801.771,1003.292,801.771Z" transform="translate(-941.306 -755.065)" fill="#fff"/>
        <path id="Path_16" data-name="Path 16" d="M894.488,862.322l-6.362,8.59-6.816-12.433-3.117-6.067Z" transform="translate(-848.26 -798.16)" fill="#fff"/>
        <path id="Path_17" data-name="Path 17" d="M739.739,1012.139h0c-.018-.031-.035-.063-.052-.095a97.922,97.922,0,0,1-4.663-10.019q-.529-1.323-1.018-2.655l1.183-2.967a6.643,6.643,0,0,0,3,5.231c1.429.879,3.54,1.384,6.657.952l1.825,14.958.738,6.05A68.956,68.956,0,0,1,739.739,1012.139Z" transform="translate(-725.561 -920.691)" fill="#fff"/>
        <path id="Path_18" data-name="Path 18" d="M953.394,915.8l9.413-1.318-3.221,8.674h-3.46Z" transform="translate(-912.255 -850.979)" fill="#fff"/>
        <path id="Path_19" data-name="Path 19" d="M938.864,972.683l-5.755,42.895,9.574,3.586,10.375-3.928-10.734-42.552Z" transform="translate(-894.993 -900.507)" fill="#fff"/>
        <path id="Path_20" data-name="Path 20" d="M1063,843.252l9.571,5-21.791,47.531,9.57-24.849s-2.458,3.092-2.775,2.65S1063,843.252,1063,843.252Z" transform="translate(-995.128 -790.365)" fill="#fff"/>
        <path id="Path_21" data-name="Path 21" d="M846.424,984.725l-16.712-36.989-1.252,1.877,3.9,10.27v-2.871C832.362,957.9,846.424,984.725,846.424,984.725Z" transform="translate(-805.939 -879.278)" fill="#fff"/>
        <path id="Path_22" data-name="Path 22" d="M702.978,616.348l-1.427.434q-2.069.63-4.14,1.255c-6.625,2-13.252,3.992-20.075,6.047.607,13.509,1.871,26.772,5.212,39.525.913,3.485,1.981,6.933,3.233,10.336q.49,1.332,1.018,2.655a97.946,97.946,0,0,0,4.663,10.019c.017.032.034.063.052.095h0a68.9,68.9,0,0,0,7.668,11.455q.4.484.812.957.436.5.884,1,.276.3.556.6a55.454,55.454,0,0,0,21.45,14.313,8.513,8.513,0,0,0,5.486-.067,54.554,54.554,0,0,0,21.383-14.332q.723-.785,1.42-1.6.92-1.072,1.792-2.195h0a68.481,68.481,0,0,0,6.426-9.981v0l.085-.159a100.521,100.521,0,0,0,6.792-16.236c1.225-3.806,2.24-7.661,3.089-11.554a220.852,220.852,0,0,0,4.136-32.957c.143-2.229-1.376-2.329-2.821-2.762-9.214-2.762-18.418-5.552-27.634-8.306h0l-3.024-.9-2.75,2.4.91.27q2.641.784,5.276,1.573c4.878,1.459,9.732,2.921,14.509,4.361,3.876,1.168,7.884,2.375,11.828,3.558.212.064.416.119.6.168a226.693,226.693,0,0,1-3.66,30.166q-.129.632-.263,1.257a105.278,105.278,0,0,1-9.709,27.529,61.368,61.368,0,0,1-11.31,15.388q-.457.446-.922.877A51.732,51.732,0,0,1,727.3,712.086a5.48,5.48,0,0,1-1.831.3,4.535,4.535,0,0,1-1.5-.227,52.6,52.6,0,0,1-17.373-10.638q-.422-.389-.837-.79a58.409,58.409,0,0,1-7.309-8.608,69.366,69.366,0,0,1-4.267-6.957,94.7,94.7,0,0,1-4.215-8.953,107.112,107.112,0,0,1-4.628-14.133q-.8-3.133-1.461-6.427a197.425,197.425,0,0,1-3.344-29.309l3.922-1.181c4.661-1.4,9.256-2.787,13.85-4.173l1.945-.589,1.433-.434Z" transform="translate(-677.337 -595.267)" fill="#ff4343"/>
      </g>
      <g id="Rectangle_11" data-name="Rectangle 11" transform="translate(431 383)" fill="none" stroke="#707070" stroke-width="1" stroke-dasharray="5 5" opacity="0.33">
        <rect width="143" height="143" stroke="none"/>
        <rect x="0.5" y="0.5" width="142" height="142" fill="none"/>
      </g>
    </g>
  </g>
</svg>
