<svg xmlns="http://www.w3.org/2000/svg" width="106.951" height="166.702" viewBox="0 0 106.951 166.702">
  <g id="Group_79" data-name="Group 79" transform="translate(-693.524 -223.52)">
    <g id="Group_5" data-name="Group 5" transform="translate(693.524 223.52)">
      <g id="Group_1" data-name="Group 1">
        <path id="Path_1" data-name="Path 1" d="M748.732,718.894a5.047,5.047,0,0,1-1.672-.252,58.508,58.508,0,0,1-19.321-11.831,68.934,68.934,0,0,1-13.805-18.189A117.182,117.182,0,0,1,702.476,655.8a219.543,219.543,0,0,1-3.719-32.6l4.361-1.313c5.183-1.561,10.294-3.1,15.4-4.64,2.519-.76,5.076-1.538,7.548-2.291,6.705-2.041,13.638-4.153,20.479-6.095a8.268,8.268,0,0,1,2.2-.294,6.588,6.588,0,0,1,1.808.231c11.454,3.343,23.079,6.845,34.32,10.231,4.311,1.3,8.768,2.641,13.154,3.956.235.07.462.132.663.186a252.1,252.1,0,0,1-4.07,33.548,118.232,118.232,0,0,1-11.089,32.013,67.481,67.481,0,0,1-13.6,18.088,57.52,57.52,0,0,1-19.157,11.739A6.091,6.091,0,0,1,748.732,718.894Z" transform="translate(-695.207 -588.65)" fill="#141414"/>
        <path id="Path_2" data-name="Path 2" d="M805.634,616.924a16.049,16.049,0,0,1-2.516-1.323c-1.964-1.391-8.6-4.094-8.6-4.094s4.831-8.432,4.912-9.334-1.228-1.637-1.228-1.637a6.264,6.264,0,0,0-3.931-1.72,7.111,7.111,0,0,0-4.011,1.475s-4.829-1.8-5.812-2.373-1.72-.409-3.358-.819a9.093,9.093,0,0,1-3.6-1.966,8.225,8.225,0,0,0-3.52-1.064s-1.392-3.6-.245-5.814,3.03-2.62,3.358-6.8a4.1,4.1,0,0,0,3.028-3.931l-5.935-6.293,0,0-.612-.648-4.064-4.309-1.588-1.684-7.1-1.922h0l-1.1-.295h0l-11.782-3.187-4.5,2.04-2.695,1.22-.6.273-2.015.911h0l-2.948,1.336-1.149,2.239,0,0-.189.368v0l-.048.094v0l-.331.641v4.458a20.115,20.115,0,0,1-1.452,2.622v0a.9.9,0,0,0-.1.328s-2.047.083-2.62,1.147-.573,5.4,1.392,8.187c1.911,2.708,3.9,1.775,4.007,1.722a3.421,3.421,0,0,0-1.225,1.8,2.451,2.451,0,0,0,.9,1.72s-.03.519-.071,1.248c-.056.958-.129,2.279-.174,3.255a6.433,6.433,0,0,0,.189,2.262c.109.428.2.766.2.766l.312.915c-.844-.421-1.886-1.352-4.635-.085l-.535-1.4v0l-.283-.736-.558.179L724.765,598s-2.539-6.3-2.866-6.712-1.966-.656-1.556,1.392a32.953,32.953,0,0,0,2.456,5.976s-1.392.245-1.8.819.143,1.291.635,2.11c0,0-2.471,2.322-3.537,3.633s-2.111,2.3-2.193,3.53.6,7.687,1.664,10.062a5.68,5.68,0,0,1-2.161,2.943,19.044,19.044,0,0,1-2.35,1.384c-.23.106-.482.212-.747.32,1.014,3.876,2.2,7.71,3.595,11.5q.547,1.482,1.134,2.952a108.975,108.975,0,0,0,5.186,11.144c.018.035.038.07.058.1v0a76.526,76.526,0,0,0,8.527,12.738c.3.36.6.713.9,1.066q.485.559.983,1.109.308.338.618.671c1.525,0,3.568-1.125,4.7-.1l0,0a.187.187,0,0,1,.042.04l.056.055c2.928,3.159,6.742,8.065,11.082,8.5.081.007.161.013.24.018.126.008.252.012.378.012l2.337-8.54c4.965-.008,13.2,7.9,18.444,8.379.167.017.331.023.492.023a8.765,8.765,0,0,0,6.064-2.57,54.407,54.407,0,0,0,5.1-5.9l.007-.007a1.411,1.411,0,0,1,.219-.216c1.091-.865,3.094.212,4.566.207q.805-.873,1.579-1.777,1.024-1.193,1.994-2.441v0a76.138,76.138,0,0,0,7.146-11.1s0,0,0,0c.031-.058.063-.116.094-.176a111.967,111.967,0,0,0,7.554-18.057c1.362-4.233,2.491-8.52,3.436-12.849C807.727,617.808,806.609,617.359,805.634,616.924Zm-69-14.831a2.038,2.038,0,0,1-.921-.716,3.252,3.252,0,0,1-.593.961,5.584,5.584,0,0,1-1.493,1.029c-.089.046-.181.091-.27.136.141-.048.29-.091.444-.129a6.411,6.411,0,0,1,1.319-.217,3.818,3.818,0,0,1,2.824,1.475A4.365,4.365,0,0,0,736.637,602.093Z" transform="translate(-706.514 -547.452)" fill="#ff4343"/>
        <path id="Path_3" data-name="Path 3" d="M830.951,518.442l-21.245-9.825a37.627,37.627,0,0,1-10.072,3.439,19.2,19.2,0,0,1-3.461.2c-3.687-.113-7.4-1.25-11.891-3.028-5.882-2.329-8.217-3.311-11.033-2.708.424-.1,7.281-1.767,12.753-3.434,0,0,.015-.027.045-.076.095-.164.346-.592.718-1.2,1.808-2.932,6.488-10.062,10.413-11.989,7-3.437,19.281-.245,25.422,3.684,4.163,2.667,6.747,10.075,7.824,16.674h0c.209,1.281.361,2.532.457,3.712v0A30.38,30.38,0,0,1,830.951,518.442Z" transform="translate(-757.354 -488.364)" fill="#ff4343"/>
        <path id="Path_4" data-name="Path 4" d="M884.324,630.052c-1.31-2.729-4.258-.6-4.967.546a8.241,8.241,0,0,1-3.166-4.2s-3.166-1.747-3.22-4.476c0,0-3.985-1.856-4.8-2.456a20.085,20.085,0,0,1-8.788,3.439c-5.567.873-12.609-.382-15.229-1.692a13.342,13.342,0,0,1-1.528,3.712s4.039,1.8,4.039,4.312-1.669,5.56-2.62,6.987c-.764,1.146-2.041,2.794-.709,3.875a6.5,6.5,0,0,0,.631.437h0a2.293,2.293,0,0,0,2,.129h0a2.217,2.217,0,0,1,1.225-.574c1.146,0,1.208.614,2.19.655s2,.637,1.583-2.076c0,0,1.365,1.367.6,2.4a2.556,2.556,0,0,1-.9.817.478.478,0,0,1-.219.087h0a1.169,1.169,0,0,1-.367.045h-.009a1.279,1.279,0,0,1-.56-.163h0c-.444-.04-.931.474-2.077.538l-.661,1.879.778-.437s-1.169,2-1.725,2.845l.757.375s.409-.082,1.938-.435,2-.633,2.583,0h0c.827.934,1.456,1.772,1.456,1.772-1.092,0-4.476.054-4.476.054a3.44,3.44,0,0,1-2.129.055s-1.146,3.384,1.692,3.439,4.967-2.4,4.967-2.4a7.963,7.963,0,0,1-3.875,4.421s-.109,4.367,4.967,3.33,7.642-7.314,7.642-7.314l-.982,3.737s6.659-1.594,10.207-6.057c3.6-4.53,4.094-5.431,5.076-8.979,0,0-.382,1.965.655,2.511s4.258-1.037,5.458-3.166S885.635,632.781,884.324,630.052Z" transform="translate(-815.23 -597.736)" fill="#fff"/>
        <path id="Path_5" data-name="Path 5" d="M877.3,661.189a3.261,3.261,0,0,0-2.893,3.3,7.939,7.939,0,0,0,3.33,6.8c3.193,2.593,8,.409,9.143-.737s.573-6.332-.682-7.7S880.382,660.862,877.3,661.189Z" transform="translate(-841.745 -632.476)" fill="#ff4343"/>
        <path id="Path_6" data-name="Path 6" d="M944.843,669.595s12.315-.327,18.333-1.965l.287.573a59.568,59.568,0,0,1-18.62,2.088Z" transform="translate(-900.509 -637.92)" fill="#ff4343"/>
        <path id="Path_7" data-name="Path 7" d="M862.878,670.754a3.1,3.1,0,0,1,2.538,0l-.109.355s-1.719-.369-2.429.252Z" transform="translate(-832.128 -640.293)" fill="#ff4343"/>
        <path id="Path_8" data-name="Path 8" d="M1014.042,749.389s-2.729,3.493-5.022,1.419c0,0,1.565,7.034-6.722,15.45l1.842,5.188s6.384-5.327,11.2-9.141a3.106,3.106,0,0,0,1.089-3.177Z" transform="translate(-948.442 -706.129)" fill="#fff"/>
        <path id="Path_9" data-name="Path 9" d="M764.776,814.181a3.679,3.679,0,0,0,.24-.409,3.964,3.964,0,0,0,.5-1.747,1.834,1.834,0,0,0-.709-1.5c-.1-.075-.186-.146-.273-.21v0c-1.314-.994-1.589-.814-1.609-.8.015-.075.562-2.582-.109-3.737-.61-1.046-1.694-2.005-4.281-2.1-.058,0-.114-.005-.174-.007-.264-.007-.545,0-.84.008a6.031,6.031,0,0,0,1.964-1.583,2,2,0,0,0-1.828-2.812,25.04,25.04,0,0,0-7.614,1.775,9.1,9.1,0,0,0-4.284,3.575c-.82,1.173-3.058,3.958-3.63,4.7s.436,4.884.653,6.686,1.584,4.94,1.694,7.695a23.108,23.108,0,0,1-.847,6.415c-.136.326-.572,4.039,4.258,5.4s5.7.383,5.7.383.053-2.594,1.2-3.876c.961-1.074,2.227-1.823,2.693-2.92v0a2.189,2.189,0,0,0,.172-.681,38.219,38.219,0,0,0,.237-4.079v0a4.243,4.243,0,0,0-.345-1.921,9.467,9.467,0,0,0,1.091-2.456,8.415,8.415,0,0,1,2.484-1.243,5.41,5.41,0,0,1,2.783,0c.109.1.083.588.766.588s1.445-.928,1.445-2.458S765.323,814.236,764.776,814.181Zm-17.289-6.318c.206-.164,1.453-.981,1.966-1.349s2.642-1.74,3.112-2.088a2.789,2.789,0,0,1,1.468-.575,10.6,10.6,0,0,1,1.8.184,4.335,4.335,0,0,1-1.8.534,2.809,2.809,0,0,0-1.961.736C751.253,805.858,747.283,808.027,747.486,807.863Zm3.767,3.991c-1.125.514-1.351.206-1.044-.121a45.859,45.859,0,0,1,4.831-2.478,4.217,4.217,0,0,1,1.571-.2C756.254,809.052,752.374,811.345,751.253,811.854Zm5.915,3.277c-1.147.409-3.52.859-3.008.593s3.949-1.884,4.626-1.863a1.719,1.719,0,0,1,1.064.388S758.315,814.721,757.169,815.131Z" transform="translate(-731.242 -747.751)" fill="#fff"/>
        <path id="Path_10" data-name="Path 10" d="M863.332,572.232l6.369,2.024c-.466-.124-7.813-2.078-14.311-3.149-1.753-.29-3.444-.514-4.921-.621.094-.164.346-.592.718-1.2l.169-.048s3.046-.023,7.332.375c6.608.611,16.164,2.226,22.044,6.472A44.031,44.031,0,0,0,863.332,572.232Z" transform="translate(-821.776 -555.835)" fill="#fff"/>
        <path id="Path_11" data-name="Path 11" d="M899.106,704.5a9.46,9.46,0,0,0,7.58,2.374,3.768,3.768,0,0,1-2.013-1.167s1.064.635,3.93,0l-3.193-4.483Z" transform="translate(-862.352 -665.944)" fill="#ff4343"/>
        <path id="Path_12" data-name="Path 12" d="M791.026,789.335l3.646-1.29.675,1.863-3.684.941Z" transform="translate(-772.184 -738.378)" fill="#fff"/>
        <path id="Path_13" data-name="Path 13" d="M767.057,754.285l2.8,6.325-.614.327s-2.272-5.608-2.395-5.875S766.525,753.609,767.057,754.285Z" transform="translate(-751.898 -710.042)" fill="#fff"/>
        <path id="Path_14" data-name="Path 14" d="M822.843,661.1s-2.756.043-2.784,2.439a11.957,11.957,0,0,0,.71,4.21S819.65,662.629,822.843,661.1Z" transform="translate(-796.405 -632.475)" fill="#fff"/>
        <path id="Path_15" data-name="Path 15" d="M1005.059,801.771s1.674,3.436-.557,5.728-16.969,13.685-16.969,13.685l4.872,7.357s12.9-15.656,14.369-20.6S1005.059,801.771,1005.059,801.771Z" transform="translate(-936.124 -749.829)" fill="#fff"/>
        <path id="Path_16" data-name="Path 16" d="M896.315,863.433l-7.075,9.553-7.58-13.827-3.466-6.747Z" transform="translate(-844.905 -792.078)" fill="#fff"/>
        <path id="Path_17" data-name="Path 17" d="M740.382,1013.9h0c-.02-.035-.039-.07-.058-.105a108.925,108.925,0,0,1-5.186-11.142q-.588-1.471-1.132-2.952l1.316-3.3a7.388,7.388,0,0,0,3.333,5.818c1.589.977,3.936,1.539,7.4,1.059l2.03,16.635.821,6.728A76.688,76.688,0,0,1,740.382,1013.9Z" transform="translate(-724.614 -912.204)" fill="#fff"/>
        <path id="Path_18" data-name="Path 18" d="M953.394,915.947l10.469-1.466-3.582,9.646h-3.848Z" transform="translate(-907.643 -843.86)" fill="#fff"/>
        <path id="Path_19" data-name="Path 19" d="M939.509,972.683l-6.4,47.7,10.647,3.987,11.538-4.369-11.937-47.323Z" transform="translate(-890.719 -892.416)" fill="#fff"/>
        <path id="Path_20" data-name="Path 20" d="M1064.37,843.252l10.644,5.56-24.234,52.859,10.643-27.635s-2.733,3.439-3.086,2.948S1064.37,843.252,1064.37,843.252Z" transform="translate(-988.889 -784.436)" fill="#fff"/>
        <path id="Path_21" data-name="Path 21" d="M848.438,988.871l-18.586-41.135-1.392,2.088,4.34,11.422v-3.193C832.8,959.034,848.438,988.871,848.438,988.871Z" transform="translate(-803.414 -871.603)" fill="#fff"/>
        <path id="Path_22" data-name="Path 22" d="M705.853,616.612l-1.587.482q-2.3.7-4.6,1.4c-7.368,2.223-14.737,4.439-22.325,6.725.675,15.023,2.08,29.774,5.8,43.956,1.015,3.876,2.2,7.71,3.6,11.495q.545,1.481,1.132,2.952a108.919,108.919,0,0,0,5.186,11.143c.019.035.038.07.058.105h0a76.627,76.627,0,0,0,8.527,12.739q.445.538.9,1.065.486.561.984,1.109.307.338.618.672a61.673,61.673,0,0,0,23.855,15.917,9.469,9.469,0,0,0,6.1-.075,60.671,60.671,0,0,0,23.78-15.939q.8-.874,1.579-1.778,1.024-1.193,1.993-2.441h0a76.174,76.174,0,0,0,7.146-11.1v0l.095-.177a111.782,111.782,0,0,0,7.554-18.056c1.362-4.232,2.491-8.519,3.435-12.85,2.61-11.967,3.807-24.265,4.6-36.652.159-2.479-1.531-2.59-3.137-3.072-10.247-3.072-20.483-6.175-30.732-9.237h0l-3.363-1-3.058,2.664,1.012.3q2.937.872,5.867,1.75c5.425,1.622,10.823,3.249,16.136,4.85,4.311,1.3,8.768,2.641,13.154,3.956.235.071.462.133.663.187a252.1,252.1,0,0,1-4.071,33.548q-.143.7-.292,1.4a117.082,117.082,0,0,1-10.8,30.615,68.25,68.25,0,0,1-12.578,17.113q-.508.5-1.026.975A57.536,57.536,0,0,1,732.9,723.084a6.1,6.1,0,0,1-2.036.328,5.042,5.042,0,0,1-1.671-.252,58.5,58.5,0,0,1-19.321-11.83q-.469-.433-.931-.879a64.946,64.946,0,0,1-8.128-9.573,77.163,77.163,0,0,1-4.746-7.737,105.279,105.279,0,0,1-4.687-9.957,119.1,119.1,0,0,1-5.147-15.717q-.888-3.484-1.624-7.147a219.573,219.573,0,0,1-3.719-32.6l4.362-1.313c5.183-1.56,10.293-3.1,15.4-4.641l2.164-.654,1.593-.483Z" transform="translate(-677.337 -593.168)" fill="#ff4343"/>
      </g>
      <g id="Group_4" data-name="Group 4" transform="translate(5.463 140.028)">
        <g id="Group_2" data-name="Group 2">
          <path id="Path_23" data-name="Path 23" d="M713.028,1347.2a4.513,4.513,0,0,1-1.957-1.486,4.057,4.057,0,0,1-.773-2.369h3.654a1.833,1.833,0,0,0,.542,1.225,1.715,1.715,0,0,0,1.2.422,1.814,1.814,0,0,0,1.2-.371,1.233,1.233,0,0,0,.442-.994,1.154,1.154,0,0,0-.351-.863,2.841,2.841,0,0,0-.863-.562,14,14,0,0,0-1.456-.5,15.8,15.8,0,0,1-2.228-.843,4.109,4.109,0,0,1-1.486-1.245,3.467,3.467,0,0,1-.622-2.148,3.694,3.694,0,0,1,1.425-3.082,5.858,5.858,0,0,1,3.714-1.114,5.925,5.925,0,0,1,3.754,1.114,3.99,3.99,0,0,1,1.526,3.1h-3.714a1.514,1.514,0,0,0-.492-1.114,1.76,1.76,0,0,0-1.195-.391,1.448,1.448,0,0,0-1,.341,1.251,1.251,0,0,0-.382.984,1.182,1.182,0,0,0,.642,1.064,10.518,10.518,0,0,0,2.008.823,18.692,18.692,0,0,1,2.219.883,4.229,4.229,0,0,1,1.476,1.225,3.28,3.28,0,0,1,.622,2.068,4.058,4.058,0,0,1-.612,2.188,4.289,4.289,0,0,1-1.777,1.566,6.081,6.081,0,0,1-2.75.582A7.245,7.245,0,0,1,713.028,1347.2Z" transform="translate(-710.298 -1333.268)" fill="#ff4343"/>
          <path id="Path_24" data-name="Path 24" d="M790.654,1337.2v2.931h4.6v2.59h-4.6v3.152h5.2v2.71h-8.633v-14.094h8.633v2.71h-5.2Z" transform="translate(-774.472 -1334.286)" fill="#ff4343"/>
          <path id="Path_25" data-name="Path 25" d="M850.147,1336.975a6.457,6.457,0,0,1,2.52-2.55,7.315,7.315,0,0,1,3.664-.914,7.011,7.011,0,0,1,4.3,1.325,6.363,6.363,0,0,1,2.389,3.614h-3.774a3.153,3.153,0,0,0-1.2-1.315,3.364,3.364,0,0,0-1.747-.452,3.292,3.292,0,0,0-2.57,1.094,4.844,4.844,0,0,0,0,5.852,3.539,3.539,0,0,0,4.317.642,3.22,3.22,0,0,0,1.2-1.325h3.774a6.317,6.317,0,0,1-2.389,3.6,7.047,7.047,0,0,1-4.3,1.315,7.312,7.312,0,0,1-3.664-.913,6.473,6.473,0,0,1-2.52-2.54,8.108,8.108,0,0,1,0-7.438Z" transform="translate(-826.216 -1333.472)" fill="#ff4343"/>
          <path id="Path_26" data-name="Path 26" d="M948.135,1334.48v8.412a2.789,2.789,0,0,0,.622,1.947,2.348,2.348,0,0,0,1.827.683,2.414,2.414,0,0,0,1.847-.683,2.734,2.734,0,0,0,.642-1.947v-8.412h3.433v8.412a5.982,5.982,0,0,1-.8,3.192,5.142,5.142,0,0,1-2.158,1.968,6.789,6.789,0,0,1-3.022.662,6.617,6.617,0,0,1-2.981-.652,4.86,4.86,0,0,1-2.078-1.968,6.28,6.28,0,0,1-.763-3.2v-8.412Z" transform="translate(-905.854 -1334.279)" fill="#ff4343"/>
          <path id="Path_27" data-name="Path 27" d="M1037.649,1348.574l-2.931-5.32h-.823v5.32h-3.433V1334.48h5.762a6.347,6.347,0,0,1,2.841.582,4.014,4.014,0,0,1,1.757,1.6,4.455,4.455,0,0,1,.582,2.259,4.2,4.2,0,0,1-.793,2.51,4.269,4.269,0,0,1-2.339,1.566l3.252,5.581h-3.875Zm-3.754-7.748h2.128a1.948,1.948,0,0,0,1.415-.462,2.026,2.026,0,0,0,0-2.6,1.923,1.923,0,0,0-1.415-.472h-2.128Z" transform="translate(-977.4 -1334.279)" fill="#ff4343"/>
          <path id="Path_28" data-name="Path 28" d="M1112.878,1334.48v14.094h-3.433V1334.48Z" transform="translate(-1043.294 -1334.279)" fill="#ff4343"/>
          <path id="Path_29" data-name="Path 29" d="M1151.483,1334.48v2.71h-3.734v11.384h-3.433V1337.19h-3.734v-2.71Z" transform="translate(-1069.269 -1334.279)" fill="#ff4343"/>
          <path id="Path_30" data-name="Path 30" d="M1223.3,1334.48l-4.879,9.436v4.658h-3.433v-4.658l-4.879-9.436H1214l2.731,5.882,2.71-5.882Z" transform="translate(-1127.275 -1334.279)" fill="#ff4343"/>
        </g>
        <g id="Group_3" data-name="Group 3" transform="translate(15.938 18.871)">
          <path id="Path_31" data-name="Path 31" d="M806.99,1449.018a3.712,3.712,0,0,1,1.416-1.388,4.163,4.163,0,0,1,4.126.1,3.408,3.408,0,0,1,1.377,1.7h-1.5a2.016,2.016,0,0,0-.823-.862,2.48,2.48,0,0,0-1.218-.291,2.664,2.664,0,0,0-1.35.34,2.385,2.385,0,0,0-.927.966,3.022,3.022,0,0,0-.335,1.449,3.053,3.053,0,0,0,.335,1.454,2.373,2.373,0,0,0,.927.971,2.663,2.663,0,0,0,1.35.34,2.479,2.479,0,0,0,1.218-.291,2.016,2.016,0,0,0,.823-.861h1.5a3.377,3.377,0,0,1-1.377,1.69,4.007,4.007,0,0,1-2.167.593,3.94,3.94,0,0,1-1.965-.5,3.722,3.722,0,0,1-1.41-1.388,4.127,4.127,0,0,1,0-4.016Z" transform="translate(-806.468 -1447.13)" fill="#fff"/>
          <path id="Path_32" data-name="Path 32" d="M872.839,1454.435a3.7,3.7,0,0,1-1.416-1.394,4.139,4.139,0,0,1,0-4.022,3.711,3.711,0,0,1,1.416-1.388,4.114,4.114,0,0,1,3.929,0,3.674,3.674,0,0,1,1.41,1.388,4.179,4.179,0,0,1,0,4.022,3.66,3.66,0,0,1-1.41,1.394,4.113,4.113,0,0,1-3.929,0Zm3.309-.976a2.412,2.412,0,0,0,.927-.977,3.055,3.055,0,0,0,.335-1.454,3.023,3.023,0,0,0-.335-1.449,2.386,2.386,0,0,0-.927-.966,2.848,2.848,0,0,0-2.7,0,2.384,2.384,0,0,0-.927.966,3.022,3.022,0,0,0-.335,1.449,3.053,3.053,0,0,0,.335,1.454,2.412,2.412,0,0,0,.927.977,2.809,2.809,0,0,0,2.7,0Z" transform="translate(-860.223 -1447.131)" fill="#fff"/>
          <path id="Path_33" data-name="Path 33" d="M944.848,1455.3H943.6l-3.764-5.7v5.7h-1.251v-7.639h1.251l3.764,5.685v-5.685h1.251Z" transform="translate(-916.686 -1447.572)" fill="#fff"/>
          <path id="Path_34" data-name="Path 34" d="M1002.506,1447.73v.977h-2.03v6.651h-1.251v-6.651h-2.041v-.977Z" transform="translate(-965.576 -1447.631)" fill="#fff"/>
          <path id="Path_35" data-name="Path 35" d="M1054.126,1455.354l-1.756-3.051h-.955v3.051h-1.251v-7.627h2.634a3.277,3.277,0,0,1,1.487.307,2.132,2.132,0,0,1,.911.823,2.24,2.24,0,0,1,.3,1.152,2.285,2.285,0,0,1-.433,1.356,2.2,2.2,0,0,1-1.333.829l1.888,3.161Zm-2.711-4.039h1.383a1.452,1.452,0,0,0,1.059-.351,1.473,1.473,0,0,0,.005-1.915,1.462,1.462,0,0,0-1.065-.346h-1.383Z" transform="translate(-1009.776 -1447.628)" fill="#fff"/>
          <path id="Path_36" data-name="Path 36" d="M1104.678,1454.435a3.7,3.7,0,0,1-1.416-1.394,4.139,4.139,0,0,1,0-4.022,3.711,3.711,0,0,1,1.416-1.388,4.114,4.114,0,0,1,3.929,0,3.674,3.674,0,0,1,1.41,1.388,4.179,4.179,0,0,1,0,4.022,3.659,3.659,0,0,1-1.41,1.394,4.113,4.113,0,0,1-3.929,0Zm3.31-.976a2.411,2.411,0,0,0,.927-.977,3.055,3.055,0,0,0,.335-1.454,3.023,3.023,0,0,0-.335-1.449,2.385,2.385,0,0,0-.927-.966,2.849,2.849,0,0,0-2.7,0,2.385,2.385,0,0,0-.927.966,3.022,3.022,0,0,0-.335,1.449,3.053,3.053,0,0,0,.335,1.454,2.412,2.412,0,0,0,.927.977,2.809,2.809,0,0,0,2.7,0Z" transform="translate(-1053.639 -1447.131)" fill="#fff"/>
          <path id="Path_37" data-name="Path 37" d="M1171.672,1454.4h2.579v.955h-3.83v-7.627h1.251Z" transform="translate(-1110.102 -1447.629)" fill="#fff"/>
        </g>
      </g>
    </g>
  </g>
</svg>
