<svg id="Group_173" data-name="Group 173" xmlns="http://www.w3.org/2000/svg" width="18.327" height="18.327" viewBox="0 0 18.327 18.327">
  <path id="Path_40" data-name="Path 40" d="M0,0H18.327V18.327H0Z" fill="none"/>
  <path id="Path_41" data-name="Path 41" d="M6.055,5.055V2.764A.764.764,0,0,1,6.818,2h9.164a.764.764,0,0,1,.764.764V13.454a.764.764,0,0,1-.764.764H13.691v2.291a.766.766,0,0,1-.769.764H3.769A.764.764,0,0,1,3,16.509L3,5.818a.766.766,0,0,1,.768-.764ZM4.529,6.582l0,9.164h7.636V6.582ZM7.582,5.055h6.109v7.636h1.527V3.527H7.582ZM6.055,8.873h4.582V10.4H6.055Zm0,3.055h4.582v1.527H6.055Z" transform="translate(-0.709 -0.473)" fill="#585858"/>
</svg>
