<svg id="Group_177" data-name="Group 177" xmlns="http://www.w3.org/2000/svg" width="18.327" height="18.327" viewBox="0 0 18.327 18.327">
  <path id="Path_54" data-name="Path 54" d="M0,0H18.327V18.327H0Z" fill="none"/>
  <path id="Path_55" data-name="Path 55" d="M15.982,3a.764.764,0,0,1,.764.764V15.982a.764.764,0,0,1-.764.764H3.764A.764.764,0,0,1,3,15.982V3.764A.764.764,0,0,1,3.764,3ZM9.253,10.757l-4.726.834v3.627h5.512l-.787-4.461Zm5.965-6.23H9.705L11.59,15.218h3.628Zm-7.064,0H4.527v5.512l4.461-.787Z" transform="translate(-0.709 -0.709)" fill="#fff"/>
</svg>
