<svg id="Group_179" data-name="Group 179" xmlns="http://www.w3.org/2000/svg" width="18.327" height="18.327" viewBox="0 0 18.327 18.327">
  <path id="Path_50" data-name="Path 50" d="M0,0H18.327V18.327H0Z" fill="none"/>
  <path id="Path_51" data-name="Path 51" d="M14.509,16.218H3.818v.764a.764.764,0,0,1-.764.764H2.291a.764.764,0,0,1-.764-.764V11.255l-.949-.237A.764.764,0,0,1,0,10.277v-.55a.382.382,0,0,1,.382-.382H1.527l1.894-4.42A1.527,1.527,0,0,1,4.826,4H13.5a1.527,1.527,0,0,1,1.4.925l1.9,4.42h1.145a.382.382,0,0,1,.382.382v.55a.764.764,0,0,1-.578.741l-.949.237v5.727a.764.764,0,0,1-.764.764h-.764a.764.764,0,0,1-.764-.764Zm.764-1.527V10.873H3.055v3.818ZM4.182,9.345h9.962A.764.764,0,0,0,14.853,8.3L13.745,5.527H4.582L3.474,8.3a.764.764,0,0,0,.709,1.047Zm-.364,2.291q2.654,0,3.578,1.729a.382.382,0,0,1-.337.562H4.582a.764.764,0,0,1-.764-.764Zm10.691,0v1.527a.764.764,0,0,1-.764.764H11.267a.382.382,0,0,1-.336-.562Q11.853,11.636,14.509,11.636Z" transform="translate(0 -0.945)" fill="#585858"/>
</svg>
