<svg id="Group_174" data-name="Group 174" xmlns="http://www.w3.org/2000/svg" width="18.327" height="18.327" viewBox="0 0 18.327 18.327">
  <path id="Path_42" data-name="Path 42" d="M0,0H18.327V18.327H0Z" fill="none"/>
  <path id="Path_43" data-name="Path 43" d="M9.636,17.273a7.636,7.636,0,1,1,7.636-7.636A7.636,7.636,0,0,1,9.636,17.273Zm4.853-4.618v-.08c0-.7,0-1.026-.5-1.31q-.24-.136-.493-.248a1.4,1.4,0,0,1-.716-.577l-.089-.131a.978.978,0,0,0-1.178-.575c-1.424.226-1.53.477-1.592.9l-.01.069c-.092.619-.109.826.149,1.1a9.4,9.4,0,0,1,1.72,2.172,2.546,2.546,0,0,1,.154,1.465,6.25,6.25,0,0,0,2.406-1.708,3.787,3.787,0,0,0,.145-1.072ZM9.636,3.4a6.22,6.22,0,0,0-4.5,1.921.965.965,0,0,1,.334.408,2.432,2.432,0,0,1,.156,1.027,1.664,1.664,0,0,0,.08.661c.11.235.585.336,1,.423.15.032.3.064.445.1a2.1,2.1,0,0,1,.925.733A2.129,2.129,0,0,0,8.4,9a.776.776,0,0,0,.221-.38.448.448,0,0,0-.034-.4,2.231,2.231,0,0,1-.272-1.832c.208-.564.857-.522,1.332-.492a2.728,2.728,0,0,0,.469.007c.475-.06.622-.783.725-.924a6.788,6.788,0,0,1,1.329-1.05A6.214,6.214,0,0,0,9.636,3.4Z" transform="translate(-0.473 -0.473)" fill="#fff"/>
</svg>
