<svg id="Group_180" data-name="Group 180" xmlns="http://www.w3.org/2000/svg" width="18.327" height="18.327" viewBox="0 0 18.327 18.327">
  <path id="Path_52" data-name="Path 52" d="M0,0H18.327V18.327H0Z" fill="none"/>
  <path id="Path_53" data-name="Path 53" d="M12.691,12.691A2.291,2.291,0,1,1,10.4,14.982,2.291,2.291,0,0,1,12.691,12.691ZM5.055,9.636A3.055,3.055,0,1,1,2,12.691,3.054,3.054,0,0,1,5.055,9.636Zm7.636,4.582a.764.764,0,1,0,.764.764A.764.764,0,0,0,12.691,14.218ZM5.055,11.164a1.527,1.527,0,1,0,1.527,1.527A1.527,1.527,0,0,0,5.055,11.164ZM11.545,2a4.2,4.2,0,1,1-4.2,4.2A4.2,4.2,0,0,1,11.545,2Zm0,1.527A2.673,2.673,0,1,0,14.218,6.2,2.673,2.673,0,0,0,11.545,3.527Z" transform="translate(-0.473 -0.473)" fill="#585858"/>
</svg>
