<svg id="Group_174" data-name="Group 174" xmlns="http://www.w3.org/2000/svg" width="17.062" height="17.062" viewBox="0 0 17.062 17.062">
  <path id="Path_1500" data-name="Path 1500" d="M0,0H17.062V17.062H0Z" fill="none"/>
  <path id="Path_1501" data-name="Path 1501" d="M5.555,4.844V2.711A.711.711,0,0,1,6.266,2h5.687a.711.711,0,0,1,.711.711V4.844h3.555V6.266H14.8v9.242a.711.711,0,0,1-.711.711H4.133a.711.711,0,0,1-.711-.711V6.266H2V4.844Zm4.56,5.687,1.257-1.257L10.366,8.269,9.109,9.526,7.852,8.269,6.847,9.274,8.1,10.531,6.847,11.788l1.005,1.005,1.257-1.257,1.257,1.257,1.005-1.005ZM6.977,3.422V4.844h4.266V3.422Z" transform="translate(-0.578 -0.578)" fill="#ff4343"/>
</svg>
